<mxfile host="app.diagrams.net" modified="2022-10-11T06:26:18.412Z" agent="5.0 (Macintosh; Intel Mac OS X 10_15_7) AppleWebKit/537.36 (KHTML, like Gecko) Chrome/105.0.0.0 Safari/537.36" etag="E3p-Uw6NCvbGKuRp4b8o" version="15.8.9" type="github">
  <diagram id="CNJRU0cHoF3ODbh1CXU_" name="Page-1">
    <mxGraphModel dx="1298" dy="729" grid="1" gridSize="10" guides="1" tooltips="1" connect="1" arrows="1" fold="1" page="1" pageScale="1" pageWidth="827" pageHeight="1169" math="0" shadow="0">
      <root>
        <mxCell id="0" />
        <mxCell id="1" parent="0" />
        <mxCell id="9aoD1vcRjxQFq-yHEkWk-2" value="" style="rounded=0;whiteSpace=wrap;html=1;" vertex="1" parent="1">
          <mxGeometry x="50" y="90" width="700" height="70" as="geometry" />
        </mxCell>
        <mxCell id="9aoD1vcRjxQFq-yHEkWk-3" value="" style="rounded=0;whiteSpace=wrap;html=1;" vertex="1" parent="1">
          <mxGeometry x="90" y="110" width="110" height="30" as="geometry" />
        </mxCell>
        <mxCell id="9aoD1vcRjxQFq-yHEkWk-4" value="" style="rounded=0;whiteSpace=wrap;html=1;" vertex="1" parent="1">
          <mxGeometry x="250" y="110" width="120" height="30" as="geometry" />
        </mxCell>
        <mxCell id="9aoD1vcRjxQFq-yHEkWk-5" value="" style="rounded=0;whiteSpace=wrap;html=1;" vertex="1" parent="1">
          <mxGeometry x="10" y="310" width="390" height="350" as="geometry" />
        </mxCell>
        <mxCell id="9aoD1vcRjxQFq-yHEkWk-6" value="开始时间" style="rounded=0;whiteSpace=wrap;html=1;" vertex="1" parent="1">
          <mxGeometry x="50" y="210" width="120" height="50" as="geometry" />
        </mxCell>
        <mxCell id="9aoD1vcRjxQFq-yHEkWk-7" value="结束时间" style="rounded=0;whiteSpace=wrap;html=1;" vertex="1" parent="1">
          <mxGeometry x="230" y="210" width="120" height="50" as="geometry" />
        </mxCell>
        <mxCell id="9aoD1vcRjxQFq-yHEkWk-8" value="接口" style="rounded=0;whiteSpace=wrap;html=1;" vertex="1" parent="1">
          <mxGeometry x="400" y="205" width="120" height="60" as="geometry" />
        </mxCell>
        <mxCell id="9aoD1vcRjxQFq-yHEkWk-9" value="" style="rounded=0;whiteSpace=wrap;html=1;" vertex="1" parent="1">
          <mxGeometry x="570" y="205" width="120" height="60" as="geometry" />
        </mxCell>
        <mxCell id="9aoD1vcRjxQFq-yHEkWk-10" value="" style="rounded=0;whiteSpace=wrap;html=1;" vertex="1" parent="1">
          <mxGeometry x="420" y="310" width="390" height="350" as="geometry" />
        </mxCell>
      </root>
    </mxGraphModel>
  </diagram>
</mxfile>
